<svg width="401" height="407" viewBox="0 0 401 407" fill="none"
    xmlns="http://www.w3.org/2000/svg">
    <path d="M78.5498 185.233H189.421C191.789 185.233 193.65 183.372 193.65 181.004C193.65 178.636 191.789 176.776 189.421 176.776H78.5498C76.1818 176.776 74.3213 178.636 74.3213 181.004C74.3213 183.372 76.1818 185.233 78.5498 185.233Z" fill="white"/>
    <path d="M78.5498 224.305H189.421C191.789 224.305 193.65 222.444 193.65 220.076C193.65 217.708 191.789 215.848 189.421 215.848H78.5498C76.1818 215.848 74.3213 217.708 74.3213 220.076C74.3213 222.444 76.1818 224.305 78.5498 224.305Z" fill="#600098"/>
    <path d="M78.5498 263.376H189.421C191.789 263.376 193.65 261.515 193.65 259.147C193.65 256.779 191.789 254.919 189.421 254.919H78.5498C76.1818 254.919 74.3213 256.779 74.3213 259.147C74.3213 261.515 76.1818 263.376 78.5498 263.376Z" fill="white"/>
    <path d="M398.564 66.4964L383.172 55.2485C381.227 53.8108 378.521 54.3183 377.168 56.2634L359.662 82.1419L353.234 77.406C351.374 76.0528 348.752 76.3911 347.314 78.3362L268.664 185.571V72.078C268.664 69.7101 266.803 67.8495 264.435 67.8495H194.58C189.844 60.4919 181.049 55.5022 170.985 55.5022H162.951C162.105 40.787 149.927 29.0317 134.958 29.0317C120.074 29.0317 107.811 40.787 106.965 55.5022H99.0158C88.952 55.5022 80.1566 60.4919 75.4207 67.8495H4.97363C2.60566 67.8495 0.745117 69.7101 0.745117 72.078V368.074C0.745117 370.442 2.60566 372.303 4.97363 372.303H264.52C266.888 372.303 268.748 370.442 268.748 368.074V273.694L389.346 109.204C390.699 107.344 390.361 104.638 388.415 103.284L381.819 98.464L399.494 72.3317C400.847 70.3866 400.424 67.8495 398.564 66.4964ZM246.76 289.339L218.345 268.535L309.258 144.639L337.673 165.444L246.76 289.339ZM75.8436 105.737H194.242C196.61 105.737 198.471 103.876 198.471 101.508V97.5337H239.149V225.911C239.078 225.982 216.881 256.098 209.482 266.891C208.036 269.001 207.6 270.912 207.519 271.124C206.868 272.825 194.919 322.829 194.919 322.829C194.496 324.52 195.172 326.212 196.525 327.227C197.879 328.241 199.739 328.326 201.177 327.48L239.149 305.238V342.618H30.3447V97.5337H71.615V101.508C71.615 103.792 73.4756 105.737 75.8436 105.737ZM205.405 315.218L214.877 276.569L239.995 295.005L205.405 315.218ZM260.291 76.3065V196.988L247.521 214.325V93.3052C247.521 90.9372 245.661 89.0767 243.293 89.0767H198.386C198.301 81.6345 198.64 79.8585 197.963 76.3911H260.291V76.3065ZM99.0158 63.9593H111.363C113.9 63.9593 115.845 61.7604 115.592 59.2233C114.238 47.4681 123.541 37.4888 135.043 37.4888C146.544 37.4888 155.762 47.5526 154.494 59.2233C154.24 61.7604 156.185 63.9593 158.722 63.9593H171.07C181.556 63.9593 190.013 71.4015 190.013 80.6196V97.28H80.0721V80.6196C80.0721 71.4015 88.6137 63.9593 99.0158 63.9593ZM260.291 363.846H9.20215V76.3065H72.0379C71.3613 79.7739 71.6996 81.4653 71.615 88.9921H26.1162C23.7482 88.9921 21.8877 90.8526 21.8877 93.2206V346.847C21.8877 349.215 23.7482 351.075 26.1162 351.075H243.377C245.745 351.075 247.606 349.215 247.606 346.847V300.249C249.551 299.065 250.904 298.642 251.665 296.95L260.376 285.111V363.846H260.291ZM342.578 158.593L314.163 137.789L351.627 86.7933L380.043 107.598L342.578 158.593ZM376.237 91.6983L367.696 85.4401L381.734 64.6358L390.276 70.894L376.237 91.6983Z" fill="white"/>
    <path d="M368.118 284.011C355.94 284.011 346.045 293.906 346.045 306.084C346.045 318.262 355.94 328.157 368.118 328.157C380.296 328.157 390.191 318.262 390.191 306.084C390.191 293.906 380.296 284.011 368.118 284.011ZM368.118 319.615C360.591 319.615 354.502 313.526 354.502 306C354.502 298.473 360.591 292.384 368.118 292.384C375.645 292.384 381.734 298.473 381.734 306C381.734 313.526 375.645 319.615 368.118 319.615Z" fill="white"/>
    <path d="M292.428 39.1801C302.999 39.1801 311.625 30.5539 311.625 19.9826C311.625 9.41133 302.999 0.785156 292.428 0.785156C281.857 0.785156 273.23 9.41133 273.23 19.9826C273.23 30.5539 281.857 39.1801 292.428 39.1801ZM292.428 9.32676C298.348 9.32676 303.168 14.1473 303.168 20.0672C303.168 25.9871 298.348 30.8076 292.428 30.8076C286.508 30.8076 281.688 25.9871 281.688 20.0672C281.772 14.1473 286.593 9.32676 292.428 9.32676Z" fill="#600098"/>
    <path d="M53.9396 406.131C58.0031 406.131 61.2973 402.837 61.2973 398.773C61.2973 394.71 58.0031 391.416 53.9396 391.416C49.8761 391.416 46.582 394.71 46.582 398.773C46.582 402.837 49.8761 406.131 53.9396 406.131Z" fill="#600098"/>
    <path d="M39.2238 34.6977C43.2873 34.6977 46.5814 31.4035 46.5814 27.34C46.5814 23.2765 43.2873 19.9824 39.2238 19.9824C35.1603 19.9824 31.8662 23.2765 31.8662 27.34C31.8662 31.4035 35.1603 34.6977 39.2238 34.6977Z" fill="white"/>
</svg>
