<svg width="344" height="480" viewBox="0 0 344 480" fill="none"
    xmlns="http://www.w3.org/2000/svg">
    <path fill-rule="evenodd" clip-rule="evenodd" d="M337.157 152.667V199.278C337.157 212.141 326.714 222.584 313.851 222.584H30.0116C17.1488 222.584 6.70605 212.141 6.70605 199.278V152.667C6.70605 139.804 17.1488 129.361 30.0116 129.361H313.851C326.714 129.361 337.157 139.804 337.157 152.667Z" fill="#500087"/>
    <path d="M128.334 478.478C126.898 477.571 125.69 472.766 124.649 463.822C123.01 449.737 121.014 444.563 109.141 423.607C105.59 417.34 100.002 405.26 96.7221 396.762C90.5679 380.816 83.6617 369.247 70.5503 352.917C54.602 333.055 50.0173 322.061 53.0405 310.929C56.5666 297.942 66.9663 289.973 80.5899 289.816C91.4659 289.692 97.884 293.4 110.829 307.288L119.676 316.779L119.763 255.531C119.844 199.101 120.057 193.834 122.48 188.585C127.293 178.155 134.669 173.629 146.851 173.629C155.39 173.629 160.587 175.504 165.851 180.485C173.376 187.605 173.638 189.044 174.109 225.775L174.549 260.018L178.148 258.139C186.28 253.895 200.875 258.069 206.749 266.317L209.69 270.449L213.718 267.471C218.462 263.964 232.335 263.216 238.038 266.161C242.984 268.715 249.406 274.929 249.406 277.163C249.406 279.528 249.194 279.56 255.816 276.184C268.613 269.66 284.598 275.82 291.579 289.966L295.217 297.338L294.662 338.395C294.169 374.819 293.75 380.898 290.948 392.271C286.488 410.371 283.907 417.904 278.258 429.305C270.885 444.185 268.243 452.81 267.122 465.663C266.227 475.917 265.727 477.434 262.802 478.767C260.209 479.949 258.668 479.734 255.677 477.774C251.911 475.306 251.872 475.117 252.758 463.584C253.759 450.563 256.571 441.246 263.965 426.456C269.353 415.677 271.893 408.528 276.616 390.847C279.261 380.945 279.75 374.358 280.351 340.583C281.085 299.386 280.609 295.34 274.532 291.083C270.334 288.144 261.774 288.471 257.754 291.726C254.715 294.187 254.323 295.866 253.679 309.175L252.967 323.901L248.245 324.354C240.196 325.127 239.436 323.404 239.436 304.388C239.436 287.467 239.409 287.334 235.272 283.196C230.18 278.104 223.099 277.62 217.55 281.985C214.038 284.747 213.797 285.692 213.797 296.669C213.797 310.752 212.268 313.647 205.187 312.974L200.265 312.506L199.428 295.751C198.68 280.783 198.236 278.618 195.263 275.454C192.717 272.744 190.493 271.911 185.806 271.911C176.684 271.911 174.798 275.604 174.217 294.599C173.964 302.881 173.492 310.458 173.168 311.437C172.417 313.71 163.634 313.763 161.38 311.509C160.108 310.237 159.67 295.445 159.67 253.75C159.67 187.702 159.687 187.784 146.378 187.918C140.901 187.972 137.482 190.376 135.512 195.559C134.56 198.064 134.031 224.768 134.031 270.426C134.031 333.832 133.792 341.493 131.778 342.265C126.534 344.277 123.66 342.606 113.069 331.38C91.1927 308.195 89.245 306.44 83.7008 304.914C74.0205 302.249 66.4376 308.252 66.8146 318.283C67.0327 324.079 68.3049 326.15 84.6491 347.314C97.6877 364.197 104.641 376.395 110.532 392.716C113.633 401.311 119.703 413.273 130.185 431.45C134.677 439.238 137.605 450.033 138.993 463.921C139.881 472.801 139.666 474.73 137.524 477.097C134.791 480.116 131.672 480.585 128.334 478.478Z" fill="white"/>
    <path fill-rule="evenodd" clip-rule="evenodd" d="M343.862 30.0113V76.6223C343.862 93.1862 330.415 106.634 313.851 106.634H30.0113C13.4478 106.634 0 93.1862 0 76.6223V30.0113C0 13.4478 13.4478 0 30.0113 0H313.851C330.415 0 343.862 13.4478 343.862 30.0113ZM330.451 30.0113C330.451 20.8496 323.013 13.4112 313.851 13.4112H30.0113C20.8496 13.4112 13.4112 20.8496 13.4112 30.0113V76.6223C13.4112 85.7843 20.8496 93.2224 30.0113 93.2224H313.851C323.013 93.2224 330.451 85.7843 330.451 76.6223V30.0113Z" fill="white"/>
    <path fill-rule="evenodd" clip-rule="evenodd" d="M107.488 229.289H30.0113C13.4478 229.289 0 215.841 0 199.278V152.667C0 136.103 13.4478 122.655 30.0113 122.655H313.851C330.415 122.655 343.862 136.103 343.862 152.667V199.278C343.862 215.841 330.415 229.289 313.851 229.289H184.603C181.009 224.819 180.975 220.348 184.603 215.878H313.851C323.013 215.878 330.451 208.44 330.451 199.278V152.667C330.451 143.505 323.013 136.067 313.851 136.067H30.0113C20.8496 136.067 13.4112 143.505 13.4112 152.667V199.278C13.4112 208.44 20.8496 215.878 30.0113 215.878H107.488C111.675 220.348 112.336 224.819 107.488 229.289Z" fill="white"/>
    <path fill-rule="evenodd" clip-rule="evenodd" d="M43.7846 356.033H30.0113C13.4478 356.033 0 342.586 0 326.022V279.411C0 262.847 13.4478 249.399 30.0113 249.399H104.135C108.325 253.87 108.981 258.34 104.135 262.811H30.0113C20.8496 262.811 13.4112 270.249 13.4112 279.411V326.022C13.4112 335.184 20.8496 342.622 30.0113 342.622H43.7846C48.1857 347.092 48.3101 351.563 43.7846 356.033Z" fill="white"/>
</svg>
