<svg width="650" height="564" viewBox="0 0 650 564" fill="none"
    xmlns="http://www.w3.org/2000/svg">
    <path d="M332.153 559.977C326.699 557.938 306.618 550.749 287.529 544C256.623 533.074 234.441 525.151 220.735 520.142L216.195 518.483L215.438 511.141C215.022 507.103 214.225 498.594 213.667 492.231C210.929 461.014 210.268 453.581 208.233 431.084C206.008 406.49 204.53 390.378 202.677 370.487C202.113 364.427 201.363 355.751 201.01 351.206C199.855 336.315 200.186 336.883 192.684 336.883H186.161V275.13L188.835 274.113C191.553 273.08 222.555 265.601 267.145 255.221C275.023 253.387 282.151 251.666 282.985 251.398C283.827 251.126 280.156 248.195 274.721 244.799C261.489 236.532 251.262 226.264 246.068 216.032C242.387 208.78 241.963 207.068 241.952 199.423C241.943 192.821 242.497 189.748 244.416 185.785C249.91 174.437 261.302 167.094 274.638 166.301C300.743 164.75 326.567 188.031 341.025 226.15C343.055 231.501 343.688 232.346 344.333 230.564C358.343 191.887 380.753 168.86 406.775 166.405C422.302 164.94 437.765 174.2 442.988 188.092C450.455 207.949 437.425 230.535 408.432 247.993L402.422 251.612L448.271 262.914C473.489 269.131 495.733 274.721 497.702 275.337L501.283 276.458V336.773L494.947 337.104C489.534 337.386 488.584 337.755 488.421 339.638C487.295 352.654 484.734 379.223 482.553 400.51C481.948 406.418 480.217 424.143 478.706 439.898C477.196 455.653 475.479 473.006 474.892 478.459C474.304 483.913 473.238 494.821 472.521 502.698C471.804 510.576 470.669 517.568 469.998 518.236C469.328 518.905 462.333 521.722 454.455 524.495C446.577 527.269 425.257 534.832 407.077 541.302C354.89 559.873 343.5 563.851 342.761 563.764C342.38 563.72 337.607 562.015 332.153 559.977ZM341.518 442.306V325.174L334.632 325.62C320.058 326.563 280.774 330.056 280.53 330.431C280.388 330.647 280.617 341.731 281.037 355.062C281.955 384.206 282.648 408.575 284.278 469.094C284.955 494.242 285.84 520.488 286.244 527.42L286.978 540.022L300.2 544.678C307.472 547.239 319.619 551.573 327.194 554.308C334.77 557.044 341.091 559.318 341.243 559.36C341.394 559.403 341.518 506.729 341.518 442.306ZM351.435 557.216C358.41 554.96 394.694 541.903 394.984 541.544C395.208 541.269 396.532 487.116 398.907 381.114C399.537 353.024 399.891 329.882 399.696 329.686C399.376 329.366 393.212 328.827 356.944 325.948C351.187 325.491 346.105 325.315 345.65 325.557C345.196 325.798 344.824 378.573 344.824 442.835C344.824 553.674 344.923 559.634 346.752 558.891C347.812 558.46 349.92 557.706 351.435 557.216ZM424.838 531.194L432.683 528.405L433.412 510.043C434.069 493.484 434.937 474.516 438.436 400.234C439.035 387.509 439.802 370.157 440.139 361.673C440.477 353.189 441.032 343.245 441.374 339.575L441.996 332.902L427.842 331.582C420.057 330.856 411.62 330.264 409.093 330.267C404.957 330.271 404.439 330.576 403.914 333.302C403.593 334.969 403.043 350.958 402.692 368.834C402.112 398.398 401.054 444.008 399.316 514.457L398.672 540.539L407.833 537.261C412.871 535.458 420.523 532.728 424.838 531.194ZM282.531 532.17C282.225 528.686 281.493 506.003 280.905 481.764C277.311 333.854 277.172 330.278 275.03 330.265C274.329 330.261 267.359 330.838 259.54 331.547L245.325 332.838L246.045 352.213C247.314 386.371 251.618 487.009 252.956 513.831L253.676 528.269L265.92 532.444C272.654 534.74 278.907 537.028 279.816 537.528C282.796 539.168 283.094 538.579 282.531 532.17ZM249.573 518.398C249.251 514.005 248.474 497.768 247.846 482.315C247.219 466.863 246.232 443.065 245.654 429.431C243.933 388.881 242.344 351.23 241.968 342.115C241.775 337.418 241.41 333.4 241.159 333.186C240.907 332.971 236.487 333.198 231.336 333.688C226.185 334.178 217.726 334.886 212.538 335.262L203.106 335.945L203.891 343.3C204.323 347.345 205.233 357.348 205.913 365.529C206.593 373.71 207.65 385.609 208.26 391.971C209.643 406.383 215.69 473.338 217.015 488.926C217.557 495.289 218.334 503.981 218.744 508.244L219.488 515.993L233.4 521.059C241.052 523.846 247.953 526.184 248.735 526.255C249.828 526.355 250.023 524.53 249.573 518.398ZM453.329 521.099L467.627 515.919L468.94 502.147C469.663 494.572 470.808 482.921 471.485 476.256C473.59 455.535 480.226 387.683 481.506 373.792C482.176 366.52 483.181 356.941 483.74 352.504C485.16 341.222 485.042 335.783 483.378 335.777C479.985 335.765 450.855 333.537 448.277 333.091L445.405 332.594L444.677 346.032C443.591 366.055 441.95 400.264 440.674 429.431C440.052 443.671 438.811 470.444 437.918 488.926C435.956 529.52 435.978 526.397 437.652 526.333C438.41 526.303 445.464 523.948 453.329 521.099ZM209.299 331.938C214.45 331.587 221.268 331.033 224.449 330.707L230.234 330.114V298.719C230.234 269.328 230.11 267.362 228.306 267.917C227.245 268.243 218.94 270.287 209.85 272.459C200.76 274.631 192.455 276.662 191.394 276.973C189.623 277.491 189.466 279.827 189.466 305.699V333.862L194.7 333.218C197.578 332.865 204.148 332.288 209.299 331.938ZM497.978 306.65C497.978 291.063 497.543 279.453 496.944 279.083C496.376 278.731 486.211 276.043 474.357 273.108L452.804 267.772V330.067L463.546 330.81C469.455 331.219 478.256 331.943 483.104 332.419C487.952 332.896 493.282 333.351 494.948 333.432L497.978 333.578V306.65ZM256.128 328.132C264.006 327.532 274.605 326.719 279.68 326.326L288.909 325.612L288.495 289.936C288.267 270.315 287.779 254.259 287.411 254.257C287.042 254.254 277.374 256.5 265.925 259.248C254.477 261.997 242.506 264.792 239.325 265.46L233.54 266.675V330.063L237.672 329.643C239.945 329.412 248.25 328.731 256.128 328.132ZM449.24 298.046L448.947 266.922L439.031 264.452C433.577 263.093 422.297 260.313 413.964 258.273L398.814 254.564V325.668L408.455 326.378C413.757 326.769 422.062 327.491 426.911 327.982C431.759 328.474 438.832 328.942 442.629 329.024L449.532 329.171L449.24 298.046ZM315.017 323.641C322.018 323.023 330.845 322.24 334.633 321.901L341.519 321.283V281.039C341.519 246.027 341.308 240.876 339.895 241.418C339.001 241.761 329.704 244.041 319.235 246.485C308.766 248.93 298.342 251.449 296.069 252.084L291.937 253.238V324.764H297.112C299.959 324.764 308.016 324.259 315.017 323.641ZM395.248 289.232L394.958 253.701L370.718 247.523C357.386 244.125 346.106 241.552 345.651 241.804C345.197 242.056 344.825 260.039 344.825 281.766V321.271L352.813 321.956C357.207 322.334 365.016 323.054 370.167 323.557C375.318 324.06 383.134 324.537 387.536 324.618L395.539 324.764L395.248 289.232ZM296.895 248.145C298.713 247.759 301.85 246.941 303.865 246.327L307.53 245.211L299.264 237.595C283.566 223.131 273.206 207.717 273.206 198.824C273.206 194.569 273.674 193.399 275.983 191.886C278.569 190.192 279.099 190.197 283.716 191.96C294.447 196.058 308.19 210.791 320.551 231.449C326.996 242.219 326.018 241.813 337.299 238.409L341.389 237.174L336.544 225.159C329.859 208.585 322.629 196.965 312.872 187.117C304.092 178.256 296.385 173.413 287.144 170.953C271.39 166.759 255.741 172.656 248.716 185.435C246.224 189.97 245.708 192.281 245.686 199.006C245.653 209.93 249.707 218.561 259.415 228.22C269.231 237.987 288.295 250.354 291.937 249.318C292.846 249.059 295.077 248.531 296.895 248.145V248.145ZM402.907 246.921C436.483 228.307 449.902 202.869 436.475 183.287C429.54 173.172 415.469 167.885 402.513 170.527C385.549 173.986 368.92 188.574 357.311 210.181C354.583 215.26 345.926 235.696 345.926 237.06C345.926 237.688 360.222 241.438 360.655 240.923C360.859 240.679 363.102 236.892 365.637 232.506C375.638 215.209 391.241 197.555 400.35 193.233C405.967 190.568 410.992 191.243 413.058 194.941C416.851 201.731 407.814 217.501 390.122 234.966C384.601 240.416 380.083 245.193 380.083 245.581C380.083 246.373 391.438 249.465 395.194 249.695C396.536 249.777 400.007 248.529 402.907 246.921ZM321.091 241.988C322.292 240.876 320.914 238.265 312.035 224.83C300.81 207.845 286.564 194.757 279.302 194.757C276.318 194.757 276.241 194.902 276.771 199.602C277.634 207.258 284.422 217.126 298.68 231.453C311.597 244.432 311.636 244.461 315.83 243.715C318.142 243.303 320.509 242.526 321.091 241.988ZM386.975 233.043C399.115 221.097 406.008 211.896 409.252 203.307C410.89 198.97 410.981 197.792 409.784 196.35C404.514 190.002 384.41 208.193 370.147 232.216C367.808 236.155 365.74 240.094 365.551 240.969C365.23 242.459 368.732 243.856 373.659 244.205C374.671 244.277 380.663 239.254 386.975 233.043ZM587.414 381.312C586.002 381.018 582.971 378.902 580.678 376.609C565.414 361.345 586.991 338.223 603.211 352.463C611.516 359.754 610.471 372.994 601.105 379.13C598.131 381.079 591.422 382.148 587.414 381.312ZM601.109 373.902C604.307 370.705 604.856 369.398 604.856 364.978C604.856 360.558 604.307 359.251 601.109 356.054C597.912 352.856 596.605 352.308 592.185 352.308C587.764 352.308 586.458 352.856 583.26 356.054C580.062 359.251 579.514 360.558 579.514 364.978C579.514 369.398 580.062 370.705 583.26 373.902C586.458 377.1 587.764 377.648 592.185 377.648C596.605 377.648 597.912 377.1 601.109 373.902ZM71.7859 274.083C68.0722 264.746 59.4951 258.274 46.2309 254.799C30.0068 250.548 21.8153 247.333 15.6521 242.796C8.25202 237.349 0.475679 226.871 1.54427 223.786C1.93247 222.666 5.3744 218.351 9.19341 214.197L16.137 206.645L18.9845 211.504C26.0781 223.607 37.1199 230.641 56.4943 235.397C73.1129 239.476 81.7576 245.081 86.8616 255.085L89.0199 259.315L80.9506 268.076C73.0172 276.69 72.863 276.791 71.7859 274.083ZM80.5486 262.862C83.6505 258.946 83.8192 258.318 82.575 255.314C81.0661 251.672 75.5095 246.39 70.4148 243.756C68.5823 242.808 61.6101 240.597 54.9211 238.842C48.2324 237.087 39.698 234.201 35.9562 232.428C29.1413 229.199 18.2163 219.42 16.9433 215.409C16.1074 212.775 15.6827 213.011 9.9349 219.302C5.3424 224.329 5.19458 224.699 6.6712 227.496C11.5215 236.68 24.813 245.559 38.5183 248.771C56.8206 253.061 65.2147 257.234 70.5883 264.716C74.5483 270.23 74.7408 270.195 80.5486 262.862ZM510.221 157.021C507.14 153.84 504.613 150.71 504.605 150.066C504.589 148.646 515.546 139.118 517.194 139.118C517.838 139.118 520.807 141.741 523.791 144.947L529.218 150.777L523.278 156.791C520.011 160.099 516.997 162.806 516.581 162.806C516.164 162.806 513.303 160.203 510.221 157.021ZM522.236 148.505C517.948 142.483 517.004 142.259 512.855 146.28L509.088 149.931L515.773 158.371L520.063 154.924L524.353 151.477L522.236 148.505ZM235.4 49.3952C232.59 46.8054 228.051 40.2739 224.131 33.1787C220.521 26.6448 215.442 19.1456 212.845 16.514L208.123 11.7291L211.346 7.66544C216.713 0.899146 218.826 -0.592193 221.94 0.189438C225.2 1.00756 229.4 6.47316 235.867 18.3148C242.229 29.9649 246.575 35.806 250.841 38.4428C252.842 39.679 254.478 41.2883 254.478 42.0191C254.478 44.0568 244.187 53.7317 242.02 53.7317C240.967 53.7317 237.988 51.7803 235.4 49.3952ZM245.924 46.5045L249.52 42.5826L244.011 36.8195C240.98 33.6499 236.091 26.5362 233.145 21.0113C230.198 15.4862 226.29 9.14884 224.459 6.92796L221.13 2.88971L217.055 6.869L212.979 10.848L216.375 14.491C218.242 16.4945 222.884 23.6291 226.689 30.3454C232.387 40.404 239.98 50.4264 241.902 50.4264C242.136 50.4264 243.946 48.6614 245.924 46.5045ZM416.975 47.2639C410.332 44.2463 407.996 37.3468 411.394 30.7764C412.855 27.9506 415.407 26.1512 420.089 24.6458C422.643 23.8248 428.512 26.3059 431.229 29.3552C432.643 30.9412 433.341 33.3551 433.341 36.6543C433.341 42.2756 431.113 45.4788 425.572 47.824C421.314 49.626 422.318 49.6913 416.975 47.2639ZM426.552 40.8906C430.791 37.0541 427.415 30.3192 421.251 30.3192C416.334 30.3192 413.852 35.6637 416.485 40.583C417.921 43.2659 423.73 43.4433 426.552 40.8906Z" fill="white"/>
    <path d="M587.412 381.312C586 381.017 582.969 378.901 580.676 376.608C565.412 361.345 586.989 338.222 603.209 352.462C611.514 359.754 610.469 372.993 601.103 379.129C598.129 381.078 591.421 382.147 587.412 381.312ZM601.107 373.901C604.305 370.704 604.854 369.397 604.854 364.977C604.854 360.557 604.305 359.25 601.107 356.053C597.91 352.856 596.603 352.307 592.183 352.307C587.763 352.307 586.456 352.856 583.258 356.053C580.06 359.25 579.512 360.557 579.512 364.977C579.512 369.397 580.06 370.704 583.258 373.901C586.456 377.099 587.763 377.647 592.183 377.647C596.603 377.647 597.91 377.099 601.107 373.901ZM71.784 274.082C68.0702 264.745 59.4932 258.273 46.2289 254.798C30.0049 250.548 21.8134 247.332 15.6501 242.796C8.25006 237.348 0.473726 226.87 1.54232 223.785C1.93052 222.665 5.37244 218.35 9.19146 214.196L16.1351 206.644L18.9826 211.503C26.0761 223.606 37.118 230.64 56.4923 235.396C73.1109 239.475 81.7557 245.08 86.8596 255.084L89.018 259.314L80.9486 268.075C73.0152 276.689 72.8611 276.79 71.784 274.082ZM80.5467 262.861C83.6485 258.945 83.8173 258.317 82.5731 255.313C81.0642 251.671 75.5076 246.389 70.4129 243.755C68.5803 242.807 61.6081 240.596 54.9192 238.841C48.2305 237.086 39.696 234.2 35.9542 232.427C29.1394 229.198 18.2144 219.419 16.9414 215.408C16.1055 212.774 15.6808 213.01 9.93295 219.301C5.34045 224.328 5.19263 224.698 6.66925 227.495C11.5196 236.679 24.811 245.558 38.5163 248.77C56.8186 253.06 65.2127 257.233 70.5864 264.716C74.5463 270.23 74.7388 270.194 80.5467 262.861ZM510.219 157.021C507.138 153.839 504.611 150.709 504.603 150.065C504.587 148.645 515.544 139.117 517.192 139.117C517.836 139.117 520.805 141.74 523.789 144.946L529.216 150.776L523.276 156.79C520.009 160.098 516.995 162.805 516.579 162.805C516.162 162.805 513.301 160.202 510.219 157.021ZM522.234 148.504C517.946 142.482 517.002 142.258 512.853 146.279L509.086 149.93L515.771 158.37L520.061 154.923L524.351 151.476L522.234 148.504ZM235.398 49.3942C232.588 46.8044 228.05 40.273 224.129 33.1777C220.519 26.6439 215.44 19.1446 212.843 16.5131L208.121 11.7281L211.344 7.66446C216.711 0.89817 218.824 -0.593169 221.938 0.188462C225.198 1.00658 229.398 6.47218 235.865 18.3138C242.227 29.9639 246.573 35.805 250.839 38.4418C252.84 39.678 254.476 41.2873 254.476 42.0181C254.476 44.0558 244.185 53.7307 242.018 53.7307C240.965 53.7307 237.986 51.7793 235.398 49.3942ZM245.922 46.5035L249.518 42.5816L244.009 36.8186C240.978 33.6489 236.089 26.5352 233.143 21.0104C230.196 15.4853 226.288 9.14787 224.457 6.92699L221.128 2.88874L217.053 6.86802L212.977 10.847L216.373 14.49C218.24 16.4935 222.882 23.6281 226.687 30.3445C232.385 40.4031 239.978 50.4254 241.9 50.4254C242.134 50.4254 243.944 48.6604 245.922 46.5035ZM416.973 47.263C410.33 44.2454 407.994 37.3458 411.392 30.7755C412.854 27.9496 415.405 26.1502 420.087 24.6448C422.641 23.8238 428.51 26.3049 431.227 29.3542C432.641 30.9402 433.339 33.3541 433.339 36.6533C433.339 42.2746 431.111 45.4778 425.57 47.823C421.312 49.625 422.316 49.6903 416.973 47.263ZM426.55 40.8896C430.789 37.0531 427.413 30.3183 421.249 30.3183C416.332 30.3183 413.85 35.6628 416.483 40.5821C417.919 43.2649 423.729 43.4426 426.55 40.8899V40.8896Z" fill="white"/>
    <path fill-rule="evenodd" clip-rule="evenodd" d="M16.0538 206.579L0 223.656C4.93997 235.346 15.0785 247.115 40.596 253.404C51.5364 256.1 69.5811 262.851 72.4193 277.092L89.8759 260.014C75.8819 225.647 36.0384 244.431 16.0538 206.579Z" fill="white"/>
    <path fill-rule="evenodd" clip-rule="evenodd" d="M633.869 206.579L649.923 223.656C644.983 235.346 634.844 247.115 609.327 253.404C598.386 256.1 580.342 262.851 577.503 277.092L560.047 260.014C574.041 225.647 613.884 244.431 633.869 206.579Z" fill="white"/>
    <path fill-rule="evenodd" clip-rule="evenodd" d="M543.992 17.6279L560.046 34.7051C555.106 46.3946 544.968 58.1638 519.45 64.4525C508.509 67.1489 490.465 73.8998 487.627 88.1403L470.17 71.0631C484.164 36.6959 524.008 55.4799 543.992 17.6279Z" fill="#600098"/>
    <circle cx="112" cy="137" r="13" fill="#600098"/>
    <circle cx="277.5" cy="73.5" r="6.5" fill="#600098"/>
    <circle cx="198.5" cy="136.5" r="6.5" fill="#600098"/>
    <path d="M34 373.16L52.403 352.535L61.0633 367.535L34 373.16Z" fill="#600098"/>
</svg>
